<svg width="38" height="71" viewBox="0 0 38 71" fill="none" xmlns="http://www.w3.org/2000/svg">
<path d="M10.9711 2.50728C24.4717 4.63659 30.4714 11.0073 30.4714 21.5073C30.5404 28.8508 28.2739 35.198 25.3984 37.9138C23.7113 39.5073 12.1662 49.5884 10.3319 45.196C8.71082 41.3141 9.96992 36.2938 13.6929 34.2143C16.351 32.7296 20.1985 31.7083 21.5598 35.198C23.6173 40.4725 18.9439 53.2359 17.4711 57.0073C16.5981 59.2427 14.5677 64.2144 10.9711 68.0073" stroke="#9DA3FF" stroke-width="2" stroke-linecap="round"/>
<path d="M9.87907 69.2674C9.85337 69.0981 9.84316 68.9313 9.84774 68.7593C9.87734 67.6474 9.9972 66.5457 9.9929 65.4306C9.98138 62.4388 9.58142 59.4719 9.22031 56.5073" stroke="#9DA3FF" stroke-width="2" stroke-linecap="round"/>
<path d="M9.97131 69.5073C14.2715 69.0296 18.9889 68.1244 23.2763 67.5401" stroke="#9DA3FF" stroke-width="2" stroke-linecap="round"/>
</svg>
