<svg width="1374" height="277" viewBox="0 0 1374 277" fill="none" xmlns="http://www.w3.org/2000/svg">
<path d="M93.625 276.625C74.125 276.625 57.375 272.25 43.375 263.5C29.375 254.75 18.75 242.75 11.5 227.5C4.25 212 0.625001 194.5 0.625001 175C0.625001 154.75 4.375 137 11.875 121.75C19.625 106.5 30.5 94.75 44.5 86.5C58.5 78.25 74.875 74.125 93.625 74.125C111.875 74.125 127.625 78.125 140.875 86.125C154.375 93.875 164.625 104.875 171.625 119.125C178.625 133.125 182.125 149.5 182.125 168.25C182.125 176.25 182 181.25 181.75 183.25H14.125V157H150.25C150.25 146.5 147.875 136.875 143.125 128.125C138.375 119.375 131.5 112.5 122.5 107.5C113.75 102.5 103.625 100 92.125 100C80.875 100 70.625 102.625 61.375 107.875C52.125 113.125 44.875 120.375 39.625 129.625C34.625 138.875 32.125 149.375 32.125 161.125C32.125 167.625 32.125 174.25 32.125 181C32.125 193 34.375 204.375 38.875 215.125C43.375 225.625 50.25 234.25 59.5 241C68.75 247.5 80.25 250.75 94 250.75C105.5 250.75 115.125 248.625 122.875 244.375C130.875 240.125 136.875 235.125 140.875 229.375C144.875 223.375 147.625 217.625 149.125 212.125H179.5C174.25 231.375 164.375 247 149.875 259C135.625 270.75 116.875 276.625 93.625 276.625ZM212.567 53.875C212.567 39.875 214.442 29 218.192 21.25C221.942 13.5 227.067 8.12499 233.567 5.12498C240.317 2.12499 248.817 0.624994 259.067 0.624994C264.317 0.624994 270.942 1.24999 278.942 2.49999V28C271.442 27.25 266.192 26.875 263.192 26.875C257.442 26.875 253.067 27.625 250.067 29.125C247.317 30.625 245.317 33.125 244.067 36.625C243.067 40.125 242.567 45.375 242.567 52.375V271H212.567V53.875ZM185.942 79.75H278.942V106H185.942V79.75ZM370.686 276.625C351.186 276.625 334.436 272.25 320.436 263.5C306.436 254.75 295.811 242.75 288.561 227.5C281.311 212 277.686 194.5 277.686 175C277.686 154.75 281.436 137 288.936 121.75C296.686 106.5 307.561 94.75 321.561 86.5C335.561 78.25 351.936 74.125 370.686 74.125C388.936 74.125 404.686 78.125 417.936 86.125C431.436 93.875 441.686 104.875 448.686 119.125C455.686 133.125 459.186 149.5 459.186 168.25C459.186 176.25 459.061 181.25 458.811 183.25H291.186V157H427.311C427.311 146.5 424.936 136.875 420.186 128.125C415.436 119.375 408.561 112.5 399.561 107.5C390.811 102.5 380.686 100 369.186 100C357.936 100 347.686 102.625 338.436 107.875C329.186 113.125 321.936 120.375 316.686 129.625C311.686 138.875 309.186 149.375 309.186 161.125C309.186 167.625 309.186 174.25 309.186 181C309.186 193 311.436 204.375 315.936 215.125C320.436 225.625 327.311 234.25 336.561 241C345.811 247.5 357.311 250.75 371.061 250.75C382.561 250.75 392.186 248.625 399.936 244.375C407.936 240.125 413.936 235.125 417.936 229.375C421.936 223.375 424.686 217.625 426.186 212.125H456.561C451.311 231.375 441.436 247 426.936 259C412.686 270.75 393.936 276.625 370.686 276.625ZM553.281 276.25C535.281 276.25 519.906 273.375 507.156 267.625C494.406 261.625 484.656 253.375 477.906 242.875C471.406 232.375 467.906 220.5 467.406 207.25H498.906C499.406 215.5 501.531 222.875 505.281 229.375C509.031 235.625 514.781 240.625 522.531 244.375C530.531 248.125 540.781 250 553.281 250C570.031 250 581.781 247 588.531 241C595.281 234.75 598.656 227.25 598.656 218.5C598.656 211.25 596.656 205.5 592.656 201.25C588.656 197 583.781 193.875 578.031 191.875C572.531 189.875 564.906 187.875 555.156 185.875C552.656 185.375 550.156 184.875 547.656 184.375C546.156 183.875 544.531 183.5 542.781 183.25C528.781 180 517.156 176.625 507.906 173.125C498.656 169.375 490.781 163.875 484.281 156.625C478.031 149.375 474.906 139.875 474.906 128.125C474.906 117.375 477.656 108 483.156 100C488.656 91.75 496.656 85.5 507.156 81.25C517.656 76.75 530.156 74.5 544.656 74.5C560.656 74.5 574.281 77.125 585.531 82.375C597.031 87.625 605.781 94.875 611.781 104.125C618.031 113.125 621.656 123.25 622.656 134.5H591.156C589.156 124.75 584.906 116.75 578.406 110.5C571.906 104 560.781 100.75 545.031 100.75C532.031 100.75 522.281 103.125 515.781 107.875C509.531 112.625 506.406 119 506.406 127C506.406 133 508.156 137.875 511.656 141.625C515.406 145.125 520.031 147.875 525.531 149.875C531.031 151.625 538.656 153.5 548.406 155.5C550.406 155.75 553.406 156.375 557.406 157.375C572.406 160.875 584.781 164.5 594.531 168.25C604.531 172 612.906 177.875 619.656 185.875C626.656 193.625 630.156 204.125 630.156 217.375C630.156 229.375 627.156 239.875 621.156 248.875C615.156 257.625 606.281 264.375 594.531 269.125C583.031 273.875 569.281 276.25 553.281 276.25ZM706.885 272.875C696.635 272.875 688.01 271.375 681.01 268.375C674.26 265.375 668.885 260 664.885 252.25C661.135 244.5 659.26 233.625 659.26 219.625V16H689.26V221.125C689.26 228.125 689.885 233.375 691.135 236.875C692.385 240.375 694.51 242.875 697.51 244.375C700.76 245.875 705.26 246.625 711.01 246.625C715.26 246.625 720.51 246.25 726.76 245.5V271C719.51 272.25 712.885 272.875 706.885 272.875ZM631.135 79.75H726.76V106H631.135V79.75ZM809.605 276.25C790.855 276.25 775.48 271 763.48 260.5C751.48 249.75 745.48 234 745.48 213.25V79.75H775.48V205.75C775.48 219 778.855 229.75 785.605 238C792.355 246 802.855 250 817.105 250C828.105 250 837.855 247.875 846.355 243.625C854.855 239.125 861.48 233 866.23 225.25C870.98 217.5 873.355 208.75 873.355 199H874.105V248.125H872.605C866.605 256.125 858.355 262.875 847.855 268.375C837.355 273.625 824.605 276.25 809.605 276.25ZM873.355 79.75H903.355V271H873.355V79.75ZM1011.81 276.25C995.807 276.25 981.182 272.25 967.932 264.25C954.932 256 944.557 244.25 936.807 229C929.307 213.75 925.557 195.875 925.557 175.375C925.557 154.875 929.307 137 936.807 121.75C944.557 106.5 954.932 94.875 967.932 86.875C981.182 78.625 995.807 74.5 1011.81 74.5C1026.06 74.5 1038.06 77.25 1047.81 82.75C1057.56 88 1065.56 95.25 1071.81 104.5H1080.81V247.375H1071.81C1065.31 255.875 1057.18 262.875 1047.43 268.375C1037.68 273.625 1025.81 276.25 1011.81 276.25ZM1014.81 250C1026.56 250 1036.81 247 1045.56 241C1054.31 234.75 1060.93 226 1065.43 214.75C1070.18 203.5 1072.56 190.375 1072.56 175.375C1072.56 160.375 1070.18 147.25 1065.43 136C1060.93 124.75 1054.31 116.125 1045.56 110.125C1036.81 103.875 1026.56 100.75 1014.81 100.75C1002.31 100.75 991.682 104.25 982.932 111.25C974.182 118.25 967.682 127.5 963.432 139C959.182 150.25 957.057 162.375 957.057 175.375C957.057 188.375 959.182 200.625 963.432 212.125C967.682 223.375 974.182 232.5 982.932 239.5C991.682 246.5 1002.31 250 1014.81 250ZM1072.56 2.87499H1102.56V271H1072.56V2.87499ZM1134.64 79.75H1164.64V271H1134.64V79.75ZM1131.64 6.62498H1167.64V42.625H1131.64V6.62498ZM1280.25 276.625C1261 276.625 1244.25 272.375 1230 263.875C1216 255.375 1205.25 243.5 1197.75 228.25C1190.25 212.75 1186.5 195.125 1186.5 175.375C1186.5 155.625 1190.25 138.125 1197.75 122.875C1205.25 107.375 1216 95.375 1230 86.875C1244.25 78.375 1261 74.125 1280.25 74.125C1299.25 74.125 1315.75 78.375 1329.75 86.875C1344 95.375 1354.87 107.375 1362.37 122.875C1369.87 138.125 1373.62 155.625 1373.62 175.375C1373.62 195.125 1369.87 212.75 1362.37 228.25C1354.87 243.5 1344 255.375 1329.75 263.875C1315.75 272.375 1299.25 276.625 1280.25 276.625ZM1280.25 250.375C1294 250.375 1305.5 247.125 1314.75 240.625C1324 233.875 1330.87 224.875 1335.37 213.625C1339.87 202.125 1342.12 189.375 1342.12 175.375C1342.12 153.625 1336.87 135.75 1326.37 121.75C1315.87 107.5 1300.5 100.375 1280.25 100.375C1266.5 100.375 1254.87 103.75 1245.37 110.5C1236.12 117 1229.25 126 1224.75 137.5C1220.25 148.75 1218 161.375 1218 175.375C1218 197.125 1223.25 215.125 1233.75 229.375C1244.25 243.375 1259.75 250.375 1280.25 250.375Z" fill="white"/>
</svg>
